<?xml version="1.0" encoding="UTF-8"?>
<svg width="5331" height="3375" viewBox="0 0 5331 3375" xmlns="http://www.w3.org/2000/svg">
  
  <!-- White background -->
  <rect width="5331" height="3375" fill="#ffffff"/>
  
  <!-- BACK COVER -->
  <g id="back_cover">
    <!-- Gradient background -->
    <defs>
      <linearGradient id="backGrad" x1="0%" y1="0%" x2="0%" y2="100%">
        <stop offset="0%" style="stop-color:#f8f9fa;stop-opacity:1" />
        <stop offset="100%" style="stop-color:#e9ecef;stop-opacity:1" />
      </linearGradient>
    </defs>
    <rect x="0" y="0" width="2587.5" height="3375" fill="url(#backGrad)"/>
    
    <!-- Decorative crossword mini-grid (centered) -->
    <g transform="translate(1143.75, 1387.5)">
      <rect x="0" y="0" width="300" height="300" fill="none" stroke="#34495e" stroke-width="3"/>
      <line x1="75" y1="0" x2="75" y2="300" stroke="#34495e" stroke-width="1"/>
      <line x1="150" y1="0" x2="150" y2="300" stroke="#34495e" stroke-width="1"/>
      <line x1="225" y1="0" x2="225" y2="300" stroke="#34495e" stroke-width="1"/>
      <line x1="0" y1="75" x2="300" y2="75" stroke="#34495e" stroke-width="1"/>
      <line x1="0" y1="150" x2="300" y2="150" stroke="#34495e" stroke-width="1"/>
      <line x1="0" y1="225" x2="300" y2="225" stroke="#34495e" stroke-width="1"/>
      <rect x="150" y="0" width="75" height="75" fill="#2c3e50"/>
      <rect x="0" y="225" width="75" height="75" fill="#2c3e50"/>
    </g>
    
    <!-- Description text -->
    <text x="1293.75" y="2100" text-anchor="middle" font-family="Arial, sans-serif" font-size="40" fill="#2c3e50">
      Challenge your mind with these
    </text>
    <text x="1293.75" y="2160" text-anchor="middle" font-family="Arial, sans-serif" font-size="40" fill="#2c3e50">
      expertly crafted puzzles
    </text>
  </g>
  
  <!-- SPINE -->
  <g id="spine">
    <rect x="2587.5" y="0" width="156.1" height="3375" fill="#34495e"/>
    
    <!-- Spine text (rotated 90 degrees, reading from bottom to top) -->
    <text x="2665.55" y="2300" text-anchor="middle" font-family="Georgia, serif" font-size="40" font-weight="bold" fill="#ffffff" letter-spacing="3" transform="rotate(-90 2665.55 2300)">
      CROSSWORD PUZZLES
    </text>
    <text x="2665.55" y="800" text-anchor="middle" font-family="Arial, sans-serif" font-size="32" fill="#ecf0f1" letter-spacing="2" transform="rotate(-90 2665.55 800)">
      SEAN REID
    </text>
  </g>
  
  <!-- FRONT COVER -->
  <g id="front_cover">
    <!-- Background gradient -->
    <defs>
      <linearGradient id="frontGrad" x1="0%" y1="0%" x2="0%" y2="100%">
        <stop offset="0%" style="stop-color:#2c3e50;stop-opacity:1" />
        <stop offset="100%" style="stop-color:#34495e;stop-opacity:1" />
      </linearGradient>
      <pattern id="gridPattern" x="0" y="0" width="40" height="40" patternUnits="userSpaceOnUse">
        <rect width="40" height="40" fill="none"/>
        <path d="M 40 0 L 0 0 0 40" fill="none" stroke="#4a5f7f" stroke-width="0.5" opacity="0.3"/>
      </pattern>
    </defs>
    <rect x="2743.6" y="0" width="2587.4" height="3375" fill="url(#frontGrad)"/>
    <rect x="2743.6" y="0" width="2587.4" height="3375" fill="url(#gridPattern)" opacity="0.5"/>
    
    <!-- Large 16x16 crossword grid -->
    <g id="crossword_main" transform="translate(3215.6, 800)">
      <!-- Define cell size -->
      <!-- 16x16 grid fitting in about 1800px = 112.5px per cell -->
      <g id="grid">
        <!-- Main grid outline -->
        <rect x="0" y="0" width="1800" height="1800" fill="#ffffff" stroke="#2c3e50" stroke-width="6"/>
        
        <!-- Grid lines -->
        <g stroke="#2c3e50" stroke-width="2">
          <!-- Vertical lines -->
          <line x1="112.5" y1="0" x2="112.5" y2="1800"/>
          <line x1="225" y1="0" x2="225" y2="1800"/>
          <line x1="337.5" y1="0" x2="337.5" y2="1800"/>
          <line x1="450" y1="0" x2="450" y2="1800"/>
          <line x1="562.5" y1="0" x2="562.5" y2="1800"/>
          <line x1="675" y1="0" x2="675" y2="1800"/>
          <line x1="787.5" y1="0" x2="787.5" y2="1800"/>
          <line x1="900" y1="0" x2="900" y2="1800"/>
          <line x1="1012.5" y1="0" x2="1012.5" y2="1800"/>
          <line x1="1125" y1="0" x2="1125" y2="1800"/>
          <line x1="1237.5" y1="0" x2="1237.5" y2="1800"/>
          <line x1="1350" y1="0" x2="1350" y2="1800"/>
          <line x1="1462.5" y1="0" x2="1462.5" y2="1800"/>
          <line x1="1575" y1="0" x2="1575" y2="1800"/>
          <line x1="1687.5" y1="0" x2="1687.5" y2="1800"/>
          
          <!-- Horizontal lines -->
          <line x1="0" y1="112.5" x2="1800" y2="112.5"/>
          <line x1="0" y1="225" x2="1800" y2="225"/>
          <line x1="0" y1="337.5" x2="1800" y2="337.5"/>
          <line x1="0" y1="450" x2="1800" y2="450"/>
          <line x1="0" y1="562.5" x2="1800" y2="562.5"/>
          <line x1="0" y1="675" x2="1800" y2="675"/>
          <line x1="0" y1="787.5" x2="1800" y2="787.5"/>
          <line x1="0" y1="900" x2="1800" y2="900"/>
          <line x1="0" y1="1012.5" x2="1800" y2="1012.5"/>
          <line x1="0" y1="1125" x2="1800" y2="1125"/>
          <line x1="0" y1="1237.5" x2="1800" y2="1237.5"/>
          <line x1="0" y1="1350" x2="1800" y2="1350"/>
          <line x1="0" y1="1462.5" x2="1800" y2="1462.5"/>
          <line x1="0" y1="1575" x2="1800" y2="1575"/>
          <line x1="0" y1="1687.5" x2="1800" y2="1687.5"/>
        </g>
        
        <!-- Black squares -->
        <g fill="#2c3e50">
          <rect x="337.5" y="0" width="112.5" height="112.5"/>
          <rect x="1237.5" y="0" width="112.5" height="112.5"/>
          <rect x="337.5" y="112.5" width="112.5" height="112.5"/>
          <rect x="787.5" y="112.5" width="112.5" height="112.5"/>
          <rect x="1237.5" y="112.5" width="112.5" height="112.5"/>
          <rect x="337.5" y="225" width="112.5" height="112.5"/>
          <rect x="787.5" y="225" width="112.5" height="112.5"/>
          <rect x="1237.5" y="225" width="112.5" height="112.5"/>
          <rect x="0" y="337.5" width="112.5" height="112.5"/>
          <rect x="112.5" y="337.5" width="112.5" height="112.5"/>
          <rect x="225" y="337.5" width="112.5" height="112.5"/>
          <rect x="787.5" y="337.5" width="112.5" height="112.5"/>
          <rect x="1575" y="337.5" width="112.5" height="112.5"/>
          <rect x="1687.5" y="337.5" width="112.5" height="112.5"/>
          <rect x="562.5" y="450" width="112.5" height="112.5"/>
          <rect x="1237.5" y="450" width="112.5" height="112.5"/>
          <rect x="562.5" y="562.5" width="112.5" height="112.5"/>
          <rect x="1012.5" y="562.5" width="112.5" height="112.5"/>
          <rect x="450" y="675" width="112.5" height="112.5"/>
          <rect x="1125" y="675" width="112.5" height="112.5"/>
          <rect x="1575" y="675" width="112.5" height="112.5"/>
          <rect x="337.5" y="787.5" width="112.5" height="112.5"/>
          <rect x="1462.5" y="787.5" width="112.5" height="112.5"/>
          <rect x="225" y="900" width="112.5" height="112.5"/>
          <rect x="1350" y="900" width="112.5" height="112.5"/>
          <rect x="112.5" y="1012.5" width="112.5" height="112.5"/>
          <rect x="562.5" y="1012.5" width="112.5" height="112.5"/>
          <rect x="1237.5" y="1012.5" width="112.5" height="112.5"/>
          <rect x="675" y="1125" width="112.5" height="112.5"/>
          <rect x="1125" y="1125" width="112.5" height="112.5"/>
          <rect x="450" y="1237.5" width="112.5" height="112.5"/>
          <rect x="1125" y="1237.5" width="112.5" height="112.5"/>
          <rect x="0" y="1350" width="112.5" height="112.5"/>
          <rect x="112.5" y="1350" width="112.5" height="112.5"/>
          <rect x="900" y="1350" width="112.5" height="112.5"/>
          <rect x="1462.5" y="1350" width="112.5" height="112.5"/>
          <rect x="1575" y="1350" width="112.5" height="112.5"/>
          <rect x="1687.5" y="1350" width="112.5" height="112.5"/>
          <rect x="450" y="1462.5" width="112.5" height="112.5"/>
          <rect x="900" y="1462.5" width="112.5" height="112.5"/>
          <rect x="1350" y="1462.5" width="112.5" height="112.5"/>
          <rect x="450" y="1575" width="112.5" height="112.5"/>
          <rect x="900" y="1575" width="112.5" height="112.5"/>
          <rect x="1350" y="1575" width="112.5" height="112.5"/>
          <rect x="450" y="1687.5" width="112.5" height="112.5"/>
          <rect x="1350" y="1687.5" width="112.5" height="112.5"/>
        </g>
        
        <!-- Numbers -->
        <g font-family="Arial, sans-serif" font-size="32" fill="#2c3e50" font-weight="bold">
          <text x="8" y="32">1</text>
          <text x="120.5" y="32">2</text>
          <text x="233" y="32">3</text>
          <text x="458" y="32">4</text>
          <text x="570.5" y="32">5</text>
          <text x="683" y="32">6</text>
          <text x="908" y="32">7</text>
          <text x="1020.5" y="32">8</text>
          <text x="1133" y="32">9</text>
          <text x="1358" y="32">10</text>
          <text x="1470.5" y="32">11</text>
          <text x="1583" y="32">12</text>
          <text x="1695.5" y="32">13</text>
          <text x="8" y="144.5">14</text>
          <text x="458" y="144.5">15</text>
          <text x="908" y="144.5">16</text>
          <text x="1358" y="144.5">17</text>
          <text x="8" y="257">18</text>
          <text x="458" y="257">19</text>
          <text x="908" y="257">20</text>
          <text x="1358" y="257">21</text>
          <text x="345.5" y="369.5">22</text>
          <text x="908" y="369.5">23</text>
          <text x="8" y="482">24</text>
          <text x="120.5" y="482">25</text>
          <text x="233" y="482">26</text>
          <text x="683" y="482">27</text>
          <text x="795.5" y="482">28</text>
          <text x="1358" y="482">29</text>
          <text x="1583" y="482">30</text>
          <text x="1695.5" y="482">31</text>
          <text x="8" y="594.5">32</text>
          <text x="683" y="594.5">33</text>
          <text x="1133" y="594.5">34</text>
          <text x="1245.5" y="594.5">35</text>
          <text x="8" y="707">36</text>
          <text x="570.5" y="707">37</text>
          <text x="1020.5" y="707">38</text>
          <text x="1245.5" y="707">39</text>
          <text x="8" y="819.5">40</text>
          <text x="458" y="819.5">41</text>
          <text x="1133" y="819.5">42</text>
          <text x="1583" y="819.5">43</text>
          <text x="8" y="932">44</text>
          <text x="345.5" y="932">45</text>
          <text x="1470.5" y="932">46</text>
          <text x="233" y="1044.5">47</text>
          <text x="683" y="1044.5">48</text>
          <text x="1358" y="1044.5">49</text>
          <text x="8" y="1157">50</text>
          <text x="120.5" y="1157">51</text>
          <text x="570.5" y="1157">52</text>
          <text x="795.5" y="1157">53</text>
          <text x="1245.5" y="1157">54</text>
          <text x="8" y="1269.5">55</text>
          <text x="570.5" y="1269.5">56</text>
          <text x="683" y="1269.5">57</text>
          <text x="1245.5" y="1269.5">58</text>
          <text x="233" y="1382">59</text>
          <text x="1020.5" y="1382">60</text>
          <text x="1133" y="1382">61</text>
          <text x="8" y="1494.5">62</text>
          <text x="120.5" y="1494.5">63</text>
          <text x="570.5" y="1494.5">64</text>
          <text x="1020.5" y="1494.5">65</text>
          <text x="1470.5" y="1494.5">66</text>
          <text x="1583" y="1494.5">67</text>
          <text x="1695.5" y="1494.5">68</text>
          <text x="8" y="1607">69</text>
          <text x="570.5" y="1607">70</text>
          <text x="1020.5" y="1607">71</text>
          <text x="1470.5" y="1607">72</text>
          <text x="8" y="1719.5">73</text>
          <text x="570.5" y="1719.5">74</text>
          <text x="1470.5" y="1719.5">75</text>
        </g>
      </g>
    </g>
    
    <!-- Title area -->
    <rect id="title_box" x="2915.6" y="200" width="2200" height="400" fill="none"/>
    <text id="title_text" x="4015.6" y="350" text-anchor="middle" font-family="Georgia, serif" font-size="120" font-weight="bold" fill="#ffffff" letter-spacing="4">
      CROSSWORD
    </text>
    <text id="subtitle_text" x="4015.6" y="480" text-anchor="middle" font-family="Georgia, serif" font-size="72" fill="#ecf0f1">
      PUZZLES
    </text>
    
    <!-- Author area -->
    <rect id="author_box" x="2915.6" y="2850" width="2200" height="200" fill="none"/>
    <text id="author_text" x="4015.6" y="2950" text-anchor="middle" font-family="Arial, sans-serif" font-size="56" fill="#ecf0f1" letter-spacing="2">
      BY SEAN REID
    </text>
    
    <!-- Decorative line -->
    <line x1="3215.6" y1="600" x2="4815.6" y2="600" stroke="#ecf0f1" stroke-width="3" opacity="0.6"/>
    <line x1="3215.6" y1="2750" x2="4815.6" y2="2750" stroke="#ecf0f1" stroke-width="3" opacity="0.6"/>
  </g>
</svg>
