<?xml version="1.0" encoding="UTF-8"?>
<svg width="5031" height="3075" viewBox="0 0 5031 3075" xmlns="http://www.w3.org/2000/svg">
  
  <!-- White background -->
  <rect width="5031" height="3075" fill="#ffffff"/>
  
  <!-- BACK COVER -->
  <g id="back_cover">
    <!-- Gradient background -->
    <defs>
      <linearGradient id="backGrad" x1="0%" y1="0%" x2="0%" y2="100%">
        <stop offset="0%" style="stop-color:#f8f9fa;stop-opacity:1" />
        <stop offset="100%" style="stop-color:#e9ecef;stop-opacity:1" />
      </linearGradient>
    </defs>
    <rect x="0" y="0" width="2437.5" height="3075" fill="url(#backGrad)"/>
    
    <!-- Decorative crossword mini-grid (centered) -->
    <g transform="translate(1068.75, 1237.5)">
      <rect x="0" y="0" width="300" height="300" fill="none" stroke="#34495e" stroke-width="3"/>
      <line x1="75" y1="0" x2="75" y2="300" stroke="#34495e" stroke-width="1"/>
      <line x1="150" y1="0" x2="150" y2="300" stroke="#34495e" stroke-width="1"/>
      <line x1="225" y1="0" x2="225" y2="300" stroke="#34495e" stroke-width="1"/>
      <line x1="0" y1="75" x2="300" y2="75" stroke="#34495e" stroke-width="1"/>
      <line x1="0" y1="150" x2="300" y2="150" stroke="#34495e" stroke-width="1"/>
      <line x1="0" y1="225" x2="300" y2="225" stroke="#34495e" stroke-width="1"/>
      <rect x="150" y="0" width="75" height="75" fill="#2c3e50"/>
      <rect x="0" y="225" width="75" height="75" fill="#2c3e50"/>
    </g>
    
    <!-- Description text -->
    <text x="1218.75" y="1900" text-anchor="middle" font-family="Arial, sans-serif" font-size="38" fill="#2c3e50">
      Challenge your mind with these
    </text>
    <text x="1218.75" y="1955" text-anchor="middle" font-family="Arial, sans-serif" font-size="38" fill="#2c3e50">
      expertly crafted puzzles
    </text>
  </g>
  
  <!-- SPINE -->
  <g id="spine">
    <rect x="2437.5" y="0" width="156.1" height="3075" fill="#34495e"/>
    
    <!-- Spine text (rotated 90 degrees, reading from bottom to top) -->
    <text x="2515.55" y="2050" text-anchor="middle" font-family="Georgia, serif" font-size="38" font-weight="bold" fill="#ffffff" letter-spacing="3" transform="rotate(-90 2515.55 2050)">
      CROSSWORD PUZZLES
    </text>
    <text x="2515.55" y="750" text-anchor="middle" font-family="Arial, sans-serif" font-size="30" fill="#ecf0f1" letter-spacing="2" transform="rotate(-90 2515.55 750)">
      SEAN REID
    </text>
  </g>
  
  <!-- FRONT COVER -->
  <g id="front_cover">
    <!-- Background gradient -->
    <defs>
      <linearGradient id="frontGrad" x1="0%" y1="0%" x2="0%" y2="100%">
        <stop offset="0%" style="stop-color:#2c3e50;stop-opacity:1" />
        <stop offset="100%" style="stop-color:#34495e;stop-opacity:1" />
      </linearGradient>
      <pattern id="gridPattern" x="0" y="0" width="40" height="40" patternUnits="userSpaceOnUse">
        <rect width="40" height="40" fill="none"/>
        <path d="M 40 0 L 0 0 0 40" fill="none" stroke="#4a5f7f" stroke-width="0.5" opacity="0.3"/>
      </pattern>
    </defs>
    <rect x="2593.6" y="0" width="2437.4" height="3075" fill="url(#frontGrad)"/>
    <rect x="2593.6" y="0" width="2437.4" height="3075" fill="url(#gridPattern)" opacity="0.5"/>
    
    <!-- Large 16x16 crossword grid -->
    <g id="crossword_main" transform="translate(2893.6, 650)">
      <!-- 16x16 grid fitting in 1640px = 102.5px per cell -->
      <g id="grid">
        <!-- Main grid outline -->
        <rect x="0" y="0" width="1640" height="1640" fill="#ffffff" stroke="#2c3e50" stroke-width="5"/>
        
        <!-- Grid lines -->
        <g stroke="#2c3e50" stroke-width="2">
          <!-- Vertical lines -->
          <line x1="102.5" y1="0" x2="102.5" y2="1640"/>
          <line x1="205" y1="0" x2="205" y2="1640"/>
          <line x1="307.5" y1="0" x2="307.5" y2="1640"/>
          <line x1="410" y1="0" x2="410" y2="1640"/>
          <line x1="512.5" y1="0" x2="512.5" y2="1640"/>
          <line x1="615" y1="0" x2="615" y2="1640"/>
          <line x1="717.5" y1="0" x2="717.5" y2="1640"/>
          <line x1="820" y1="0" x2="820" y2="1640"/>
          <line x1="922.5" y1="0" x2="922.5" y2="1640"/>
          <line x1="1025" y1="0" x2="1025" y2="1640"/>
          <line x1="1127.5" y1="0" x2="1127.5" y2="1640"/>
          <line x1="1230" y1="0" x2="1230" y2="1640"/>
          <line x1="1332.5" y1="0" x2="1332.5" y2="1640"/>
          <line x1="1435" y1="0" x2="1435" y2="1640"/>
          <line x1="1537.5" y1="0" x2="1537.5" y2="1640"/>
          
          <!-- Horizontal lines -->
          <line x1="0" y1="102.5" x2="1640" y2="102.5"/>
          <line x1="0" y1="205" x2="1640" y2="205"/>
          <line x1="0" y1="307.5" x2="1640" y2="307.5"/>
          <line x1="0" y1="410" x2="1640" y2="410"/>
          <line x1="0" y1="512.5" x2="1640" y2="512.5"/>
          <line x1="0" y1="615" x2="1640" y2="615"/>
          <line x1="0" y1="717.5" x2="1640" y2="717.5"/>
          <line x1="0" y1="820" x2="1640" y2="820"/>
          <line x1="0" y1="922.5" x2="1640" y2="922.5"/>
          <line x1="0" y1="1025" x2="1640" y2="1025"/>
          <line x1="0" y1="1127.5" x2="1640" y2="1127.5"/>
          <line x1="0" y1="1230" x2="1640" y2="1230"/>
          <line x1="0" y1="1332.5" x2="1640" y2="1332.5"/>
          <line x1="0" y1="1435" x2="1640" y2="1435"/>
          <line x1="0" y1="1537.5" x2="1640" y2="1537.5"/>
        </g>
        
        <!-- Black squares -->
        <g fill="#2c3e50">
          <rect x="307.5" y="0" width="102.5" height="102.5"/>
          <rect x="1127.5" y="0" width="102.5" height="102.5"/>
          <rect x="307.5" y="102.5" width="102.5" height="102.5"/>
          <rect x="717.5" y="102.5" width="102.5" height="102.5"/>
          <rect x="1127.5" y="102.5" width="102.5" height="102.5"/>
          <rect x="307.5" y="205" width="102.5" height="102.5"/>
          <rect x="717.5" y="205" width="102.5" height="102.5"/>
          <rect x="1127.5" y="205" width="102.5" height="102.5"/>
          <rect x="0" y="307.5" width="102.5" height="102.5"/>
          <rect x="102.5" y="307.5" width="102.5" height="102.5"/>
          <rect x="205" y="307.5" width="102.5" height="102.5"/>
          <rect x="717.5" y="307.5" width="102.5" height="102.5"/>
          <rect x="1435" y="307.5" width="102.5" height="102.5"/>
          <rect x="1537.5" y="307.5" width="102.5" height="102.5"/>
          <rect x="512.5" y="410" width="102.5" height="102.5"/>
          <rect x="1127.5" y="410" width="102.5" height="102.5"/>
          <rect x="512.5" y="512.5" width="102.5" height="102.5"/>
          <rect x="922.5" y="512.5" width="102.5" height="102.5"/>
          <rect x="410" y="615" width="102.5" height="102.5"/>
          <rect x="1025" y="615" width="102.5" height="102.5"/>
          <rect x="1435" y="615" width="102.5" height="102.5"/>
          <rect x="307.5" y="717.5" width="102.5" height="102.5"/>
          <rect x="1332.5" y="717.5" width="102.5" height="102.5"/>
          <rect x="205" y="820" width="102.5" height="102.5"/>
          <rect x="1230" y="820" width="102.5" height="102.5"/>
          <rect x="102.5" y="922.5" width="102.5" height="102.5"/>
          <rect x="512.5" y="922.5" width="102.5" height="102.5"/>
          <rect x="1127.5" y="922.5" width="102.5" height="102.5"/>
          <rect x="615" y="1025" width="102.5" height="102.5"/>
          <rect x="1025" y="1025" width="102.5" height="102.5"/>
          <rect x="410" y="1127.5" width="102.5" height="102.5"/>
          <rect x="1025" y="1127.5" width="102.5" height="102.5"/>
          <rect x="0" y="1230" width="102.5" height="102.5"/>
          <rect x="102.5" y="1230" width="102.5" height="102.5"/>
          <rect x="820" y="1230" width="102.5" height="102.5"/>
          <rect x="1332.5" y="1230" width="102.5" height="102.5"/>
          <rect x="1435" y="1230" width="102.5" height="102.5"/>
          <rect x="1537.5" y="1230" width="102.5" height="102.5"/>
          <rect x="410" y="1332.5" width="102.5" height="102.5"/>
          <rect x="820" y="1332.5" width="102.5" height="102.5"/>
          <rect x="1230" y="1332.5" width="102.5" height="102.5"/>
          <rect x="410" y="1435" width="102.5" height="102.5"/>
          <rect x="820" y="1435" width="102.5" height="102.5"/>
          <rect x="1230" y="1435" width="102.5" height="102.5"/>
          <rect x="410" y="1537.5" width="102.5" height="102.5"/>
          <rect x="1230" y="1537.5" width="102.5" height="102.5"/>
        </g>
        
        <!-- Numbers -->
        <g font-family="Arial, sans-serif" font-size="30" fill="#2c3e50" font-weight="bold">
          <text x="7" y="30">1</text>
          <text x="109.5" y="30">2</text>
          <text x="212" y="30">3</text>
          <text x="417" y="30">4</text>
          <text x="519.5" y="30">5</text>
          <text x="622" y="30">6</text>
          <text x="827" y="30">7</text>
          <text x="929.5" y="30">8</text>
          <text x="1032" y="30">9</text>
          <text x="1237" y="30">10</text>
          <text x="1339.5" y="30">11</text>
          <text x="1442" y="30">12</text>
          <text x="1544.5" y="30">13</text>
          <text x="7" y="132.5">14</text>
          <text x="417" y="132.5">15</text>
          <text x="827" y="132.5">16</text>
          <text x="1237" y="132.5">17</text>
          <text x="7" y="235">18</text>
          <text x="417" y="235">19</text>
          <text x="827" y="235">20</text>
          <text x="1237" y="235">21</text>
          <text x="314.5" y="337.5">22</text>
          <text x="827" y="337.5">23</text>
          <text x="7" y="440">24</text>
          <text x="109.5" y="440">25</text>
          <text x="212" y="440">26</text>
          <text x="622" y="440">27</text>
          <text x="724.5" y="440">28</text>
          <text x="1237" y="440">29</text>
          <text x="1442" y="440">30</text>
          <text x="1544.5" y="440">31</text>
          <text x="7" y="542.5">32</text>
          <text x="622" y="542.5">33</text>
          <text x="1032" y="542.5">34</text>
          <text x="1134.5" y="542.5">35</text>
          <text x="7" y="645">36</text>
          <text x="519.5" y="645">37</text>
          <text x="929.5" y="645">38</text>
          <text x="1134.5" y="645">39</text>
          <text x="7" y="747.5">40</text>
          <text x="417" y="747.5">41</text>
          <text x="1032" y="747.5">42</text>
          <text x="1442" y="747.5">43</text>
          <text x="7" y="850">44</text>
          <text x="314.5" y="850">45</text>
          <text x="1339.5" y="850">46</text>
          <text x="212" y="952.5">47</text>
          <text x="622" y="952.5">48</text>
          <text x="1237" y="952.5">49</text>
          <text x="7" y="1055">50</text>
          <text x="109.5" y="1055">51</text>
          <text x="519.5" y="1055">52</text>
          <text x="724.5" y="1055">53</text>
          <text x="1134.5" y="1055">54</text>
          <text x="7" y="1157.5">55</text>
          <text x="519.5" y="1157.5">56</text>
          <text x="622" y="1157.5">57</text>
          <text x="1134.5" y="1157.5">58</text>
          <text x="212" y="1260">59</text>
          <text x="929.5" y="1260">60</text>
          <text x="1032" y="1260">61</text>
          <text x="7" y="1362.5">62</text>
          <text x="109.5" y="1362.5">63</text>
          <text x="519.5" y="1362.5">64</text>
          <text x="929.5" y="1362.5">65</text>
          <text x="1339.5" y="1362.5">66</text>
          <text x="1442" y="1362.5">67</text>
          <text x="1544.5" y="1362.5">68</text>
          <text x="7" y="1465">69</text>
          <text x="519.5" y="1465">70</text>
          <text x="929.5" y="1465">71</text>
          <text x="1339.5" y="1465">72</text>
          <text x="7" y="1567.5">73</text>
          <text x="519.5" y="1567.5">74</text>
          <text x="1339.5" y="1567.5">75</text>
        </g>
      </g>
    </g>
    
    <!-- Title area -->
    <text id="title_text" x="3812.8" y="300" text-anchor="middle" font-family="Georgia, serif" font-size="108" font-weight="bold" fill="#ffffff" letter-spacing="4">
      CROSSWORD
    </text>
    <text id="subtitle_text" x="3812.8" y="420" text-anchor="middle" font-family="Georgia, serif" font-size="66" fill="#ecf0f1">
      PUZZLES
    </text>
    
    <!-- Author area -->
    <text id="author_text" x="3812.8" y="2620" text-anchor="middle" font-family="Arial, sans-serif" font-size="50" fill="#ecf0f1" letter-spacing="2">
      BY SEAN REID
    </text>
    
    <!-- Decorative lines -->
    <line x1="2893.6" y1="520" x2="4733.6" y2="520" stroke="#ecf0f1" stroke-width="3" opacity="0.6"/>
    <line x1="2893.6" y1="2460" x2="4733.6" y2="2460" stroke="#ecf0f1" stroke-width="3" opacity="0.6"/>
  </g>
</svg>
