<svg xmlns="http://www.w3.org/2000/svg" viewBox="0 0 32 32">
  <!-- Crossword grid icon -->
  <rect width="32" height="32" fill="#1f2937"/>
  
  <!-- Grid cells -->
  <rect x="4" y="4" width="6" height="6" fill="white" stroke="#1f2937" stroke-width="0.5"/>
  <rect x="10" y="4" width="6" height="6" fill="white" stroke="#1f2937" stroke-width="0.5"/>
  <rect x="16" y="4" width="6" height="6" fill="white" stroke="#1f2937" stroke-width="0.5"/>
  <rect x="22" y="4" width="6" height="6" fill="#1f2937"/>
  
  <rect x="4" y="10" width="6" height="6" fill="white" stroke="#1f2937" stroke-width="0.5"/>
  <rect x="10" y="10" width="6" height="6" fill="#1f2937"/>
  <rect x="16" y="10" width="6" height="6" fill="white" stroke="#1f2937" stroke-width="0.5"/>
  <rect x="22" y="10" width="6" height="6" fill="white" stroke="#1f2937" stroke-width="0.5"/>
  
  <rect x="4" y="16" width="6" height="6" fill="white" stroke="#1f2937" stroke-width="0.5"/>
  <rect x="10" y="16" width="6" height="6" fill="white" stroke="#1f2937" stroke-width="0.5"/>
  <rect x="16" y="16" width="6" height="6" fill="white" stroke="#1f2937" stroke-width="0.5"/>
  <rect x="22" y="16" width="6" height="6" fill="#1f2937"/>
  
  <rect x="4" y="22" width="6" height="6" fill="#1f2937"/>
  <rect x="10" y="22" width="6" height="6" fill="white" stroke="#1f2937" stroke-width="0.5"/>
  <rect x="16" y="22" width="6" height="6" fill="#1f2937"/>
  <rect x="22" y="22" width="6" height="6" fill="white" stroke="#1f2937" stroke-width="0.5"/>
  
  <!-- Cell number -->
  <text x="5.5" y="8.5" font-family="sans-serif" font-size="3" fill="#3b82f6" font-weight="bold">1</text>
</svg>
